<svg width="205.703918" height="32.466797" viewBox="0 0 205.704 32.4668" fill="none" xmlns="http://www.w3.org/2000/svg" xmlns:xlink="http://www.w3.org/1999/xlink">
	<desc>
			Created with Pixso.
	</desc>
	<defs/>
	<path id="Kang Tutor" d="M9.17578 15.3018L5.79199 18.8262L5.79199 25.1982L0 25.1982L0 0L5.79199 0L5.79199 11.7686L16.9541 0L23.4316 0L12.999 11.2324L24.0469 25.1982L17.2441 25.1982L9.17578 15.3018ZM33.626 5.5459Q38.126 5.5459 40.5342 7.69043Q42.9512 9.82617 42.9512 14.1504L42.9512 25.1982L37.6953 25.1982L37.6953 22.79Q36.1045 25.4883 31.7891 25.4883Q29.5566 25.4883 27.9131 24.7324Q26.2783 23.9766 25.417 22.6494Q24.5557 21.3135 24.5557 19.6172Q24.5557 16.9189 26.5859 15.3721Q28.6162 13.8252 32.8701 13.8252L37.335 13.8252Q37.335 11.9883 36.2187 10.9951Q35.1025 10.002 32.8701 10.002Q31.3232 10.002 29.8291 10.4941Q28.335 10.9775 27.2891 11.8037L25.2676 7.88379Q26.8584 6.76758 29.0732 6.16113Q31.2881 5.5459 33.626 5.5459ZM33.1953 21.709Q34.6279 21.709 35.7441 21.041Q36.8603 20.373 37.335 19.0811L37.335 17.0947L33.4766 17.0947Q30.0225 17.0947 30.0225 19.3623Q30.0225 20.4434 30.8662 21.0762Q31.7187 21.709 33.1953 21.709ZM59.793 5.5459Q63.3966 5.5459 65.6114 7.70801Q67.8262 9.86133 67.8262 14.1064L67.8262 25.1982L62.21 25.1982L62.21 14.9766Q62.21 12.6738 61.1993 11.54Q60.1886 10.4062 58.2813 10.4062Q56.1632 10.4062 54.8975 11.7246Q53.6407 13.0342 53.6407 15.6182L53.6407 25.1982L48.0245 25.1982L48.0245 5.82715L53.3858 5.82715L53.3858 8.09473Q54.502 6.87305 56.1544 6.21387Q57.8155 5.5459 59.793 5.5459ZM93.094 5.82715L93.094 21.9551Q93.094 27.29 90.3167 29.874Q87.5481 32.4668 82.222 32.4668Q79.4182 32.4668 76.8958 31.7812Q74.3733 31.1045 72.721 29.8037L74.9534 25.7783Q76.1751 26.7803 78.0471 27.3691Q79.9192 27.9668 81.7913 27.9668Q84.7093 27.9668 86.0891 26.6484Q87.4778 25.3389 87.4778 22.6758L87.4778 21.8496Q85.2805 24.2666 81.3606 24.2666Q78.6975 24.2666 76.4827 23.0977Q74.2679 21.9199 72.9671 19.8018Q71.6751 17.6748 71.6751 14.9062Q71.6751 12.1289 72.9671 10.0107Q74.2679 7.88379 76.4827 6.71484Q78.6975 5.5459 81.3606 5.5459Q85.5706 5.5459 87.7679 8.31445L87.7679 5.82715L93.094 5.82715ZM82.4768 19.6523Q84.7093 19.6523 86.1243 18.3428Q87.5481 17.0244 87.5481 14.9062Q87.5481 12.7793 86.1243 11.4697Q84.7093 10.1514 82.4768 10.1514Q80.2444 10.1514 78.803 11.4697Q77.3616 12.7793 77.3616 14.9062Q77.3616 17.0244 78.803 18.3428Q80.2444 19.6523 82.4768 19.6523ZM114.121 4.74609L106.052 4.74609L106.052 0L128.016 0L128.016 4.74609L119.948 4.74609L119.948 25.1982L114.121 25.1982L114.121 4.74609ZM149.832 5.82715L149.832 25.1982L144.506 25.1982L144.506 22.8955Q143.39 24.1523 141.843 24.8203Q140.296 25.4883 138.494 25.4883Q134.68 25.4883 132.447 23.291Q130.215 21.0938 130.215 16.7783L130.215 5.82715L135.831 5.82715L135.831 15.9434Q135.831 20.6279 139.751 20.6279Q141.764 20.6279 142.986 19.3184Q144.216 18 144.216 15.4072L144.216 5.82715L149.832 5.82715ZM167.542 24.2666Q166.716 24.873 165.511 25.1807Q164.307 25.4883 162.971 25.4883Q159.517 25.4883 157.628 23.7217Q155.738 21.9551 155.738 18.5361L155.738 10.582L152.75 10.582L152.75 6.2666L155.738 6.2666L155.738 1.54688L161.354 1.54688L161.354 6.2666L166.179 6.2666L166.179 10.582L161.354 10.582L161.354 18.4658Q161.354 19.6875 161.978 20.3555Q162.611 21.0234 163.762 21.0234Q165.098 21.0234 166.03 20.3027L167.542 24.2666ZM179.311 25.4883Q176.253 25.4883 173.818 24.2139Q171.392 22.9307 170.021 20.6631Q168.659 18.3955 168.659 15.5127Q168.659 12.6299 170.021 10.3623Q171.392 8.09473 173.818 6.82031Q176.253 5.5459 179.311 5.5459Q182.379 5.5459 184.787 6.82031Q187.204 8.09473 188.566 10.3623Q189.937 12.6299 189.937 15.5127Q189.937 18.3955 188.566 20.6631Q187.204 22.9307 184.787 24.2139Q182.379 25.4883 179.311 25.4883ZM179.311 20.874Q181.474 20.874 182.862 19.4238Q184.251 17.9648 184.251 15.5127Q184.251 13.0693 182.862 11.6104Q181.474 10.1514 179.311 10.1514Q177.158 10.1514 175.752 11.6104Q174.346 13.0693 174.346 15.5127Q174.346 17.9648 175.752 19.4238Q177.158 20.874 179.311 20.874ZM199.042 8.38477Q200.053 6.97852 201.758 6.2666Q203.471 5.5459 205.704 5.5459L205.704 10.7227Q204.763 10.6523 204.447 10.6523Q202.03 10.6523 200.659 12.0059Q199.297 13.3506 199.297 16.0576L199.297 25.1982L193.68 25.1982L193.68 5.82715L199.042 5.82715L199.042 8.38477Z" fill="#FFFFFF" fill-opacity="1.000000" fill-rule="evenodd"/>
</svg>
