<svg width="16.000000" height="15.058838" viewBox="0 0 16 15.0588" fill="none" xmlns="http://www.w3.org/2000/svg" xmlns:xlink="http://www.w3.org/1999/xlink">
	<desc>
			Created with Pixso.
	</desc>
	<defs/>
	<path id="Vector" d="M11.0769 6.37103C11.0769 5.25491 10.6555 4.30014 9.8125 3.50677C8.96954 2.71341 7.95514 2.31674 6.76923 2.31674C5.58331 2.31674 4.56891 2.71341 3.72595 3.50677C2.883 4.30014 2.46155 5.25491 2.46155 6.37103C2.46155 7.48718 2.883 8.44193 3.72595 9.23529C4.56891 10.0287 5.58331 10.4254 6.76923 10.4254C7.95514 10.4254 8.96954 10.0287 9.8125 9.23529C10.6555 8.44193 11.0769 7.48718 11.0769 6.37103ZM16 13.9005C16 14.2142 15.8782 14.4857 15.6346 14.7149C15.3911 14.9442 15.1025 15.0588 14.7692 15.0588C14.4231 15.0588 14.1346 14.9442 13.9039 14.7149L10.6058 11.6199C9.45831 12.368 8.1795 12.7421 6.76923 12.7421C5.85254 12.7421 4.97595 12.5746 4.1394 12.2398C3.30286 11.905 2.58173 11.4525 1.97595 10.8824C1.37018 10.3122 0.889404 9.63348 0.53363 8.84616C0.177856 8.05884 0 7.2338 0 6.37103C0 5.5083 0.177856 4.68326 0.53363 3.89594C0.889404 3.10861 1.37018 2.42987 1.97595 1.85974C2.58173 1.28958 3.30286 0.837097 4.1394 0.502258C4.97595 0.167419 5.85254 0 6.76923 0C7.68591 0 8.5625 0.167419 9.39905 0.502258C10.2356 0.837097 10.9567 1.28958 11.5625 1.85974C12.1683 2.42987 12.649 3.10861 13.0048 3.89594C13.3606 4.68326 13.5385 5.5083 13.5385 6.37103C13.5385 7.69833 13.1411 8.90195 12.3461 9.9819L15.6442 13.086C15.8814 13.3092 16 13.5807 16 13.9005Z" fill="#FFFFFF" fill-opacity="1.000000" fill-rule="nonzero"/>
</svg>
